{"title":"NCAA.Football.2011.11.13.Nebraska.vs.Peen.State.x264","uid":6814757,"size":2588930052,"categoryP":"video","categoryS":"other","magnet":"?xt=urn:btih:3f1021f621cb884e6a6516a325a4445597ca7b39&amp;dn=NCAA.Football.2011.11.13.Nebraska.vs.Peen.State.x264&amp;tr=udp%3A%2F%2Ftracker.openbittorrent.com%3A80&amp;tr=udp%3A%2F%2Fopen.demonii.com%3A1337&amp;tr=udp%3A%2F%2Ftracker.coppersurfer.tk%3A6969&amp;tr=udp%3A%2F%2Fexodus.desync.com%3A6969","seeders":0,"leechers":0,"uploader":"6thstreet","files":-1,"time":1321168702,"description":"NCAA.Football.2011.11.13.Nebraska.vs.Peen.State.x264\n\n\nFormat                           : AVI\nFormat/Info                      : Audio Video Interleave\nFile size                        : 595 MiB\nDuration                         : 37mn 17s\nOverall bit rate                 : 2 231 Kbps\n\nVideo\nID                               : 0\nFormat                           : AVC\nFormat/Info                      : Advanced Video Codec\nCodec ID                         : H264\nBit rate                         : 2 030 Kbps\nWidth                            : 720 pixels\nHeight                           : 480 pixels\nDisplay aspect ratio             : 3:2\nFrame rate                       : 29.970 fps\nStandard                         : NTSC\nColor space                      : YUV\nChroma subsampling               : 4:2:0\nBits/(Pixel*Frame)               : 0.196\nStream size                      : 541 MiB (91%)\n\nAudio\nID                               : 1\nFormat                           : MPEG Audio\nFormat version                   : Version 1\nFormat profile                   : Layer 3\nCodec ID                         : 55\nCodec ID/Hint                    : MP3\nDuration                         : 37mn 17s\nBit rate mode                    : Constant\nBit rate                         : 192 Kbps\nChannel(s)                       : 2 channels\nSampling rate                    : 48.0 KHz\nCompression mode                 : Lossy\nDelay relative to video          : 1ms\nStream size                      : 51.2 MiB (9%)\nAlignment                        : Split accross interleaves\nInterleave, duration             : 200 ms (5.99 video frames)\nInterleave, preload duration     : 180 ms\n\n\n\n","torrent":{"xt":"urn:btih:3f1021f621cb884e6a6516a325a4445597ca7b39","amp;dn":"NCAA.Football.2011.11.13.Nebraska.vs.Peen.State.x264","amp;tr":["udp%3A%2F%2Ftracker.openbittorrent.com%3A80","udp%3A%2F%2Fopen.demonii.com%3A1337","udp%3A%2F%2Ftracker.coppersurfer.tk%3A6969","udp%3A%2F%2Fexodus.desync.com%3A6969"],"infoHash":"3f1021f621cb884e6a6516a325a4445597ca7b39","infoHashBuffer":{"type":"Buffer","data":[63,16,33,246,33,203,136,78,106,101,22,163,37,164,68,85,151,202,123,57]},"announce":[],"urlList":[]}}